<mxfile host="app.diagrams.net" modified="2022-07-02T19:59:20.986Z" agent="5.0 (Windows NT 10.0; Win64; x64) AppleWebKit/537.36 (KHTML, like Gecko) Chrome/94.0.4606.81 Safari/537.36" etag="a-rm4GSzcTpR19iGH1L4" version="20.0.4" type="github">
  <diagram id="gkQaiRN9EQ60-744cFvC" name="Page-1">
    <mxGraphModel dx="1635" dy="913" grid="1" gridSize="10" guides="1" tooltips="1" connect="1" arrows="1" fold="1" page="1" pageScale="1" pageWidth="1169" pageHeight="1654" math="0" shadow="0">
      <root>
        <mxCell id="0" />
        <mxCell id="1" parent="0" />
        <mxCell id="7e6zY1MCRto-hFeujtTe-12" style="edgeStyle=orthogonalEdgeStyle;rounded=0;orthogonalLoop=1;jettySize=auto;html=1;" edge="1" parent="1" source="7e6zY1MCRto-hFeujtTe-7" target="7e6zY1MCRto-hFeujtTe-11">
          <mxGeometry relative="1" as="geometry" />
        </mxCell>
        <mxCell id="7e6zY1MCRto-hFeujtTe-7" value="&lt;span style=&quot;background-color: rgb(248, 249, 250);&quot;&gt;Connessione Infocamere API&lt;/span&gt;" style="aspect=fixed;html=1;points=[];align=center;image;fontSize=12;image=img/lib/azure2/app_services/API_Management_Services.svg;" vertex="1" parent="1">
          <mxGeometry x="500" y="29" width="65" height="60" as="geometry" />
        </mxCell>
        <mxCell id="7e6zY1MCRto-hFeujtTe-10" style="edgeStyle=orthogonalEdgeStyle;rounded=0;orthogonalLoop=1;jettySize=auto;html=1;" edge="1" parent="1" source="7e6zY1MCRto-hFeujtTe-9" target="7e6zY1MCRto-hFeujtTe-7">
          <mxGeometry relative="1" as="geometry" />
        </mxCell>
        <mxCell id="7e6zY1MCRto-hFeujtTe-9" value="Ricerca Società&lt;br&gt;" style="sketch=0;html=1;aspect=fixed;strokeColor=none;shadow=0;align=center;verticalAlign=top;fillColor=#3B8DF1;shape=mxgraph.gcp2.search_api;labelPosition=center;verticalLabelPosition=bottom;" vertex="1" parent="1">
          <mxGeometry x="320" y="29" width="60" height="60" as="geometry" />
        </mxCell>
        <mxCell id="7e6zY1MCRto-hFeujtTe-29" style="edgeStyle=orthogonalEdgeStyle;rounded=0;orthogonalLoop=1;jettySize=auto;html=1;exitX=1;exitY=0.5;exitDx=0;exitDy=0;" edge="1" parent="1" source="7e6zY1MCRto-hFeujtTe-11" target="7e6zY1MCRto-hFeujtTe-13">
          <mxGeometry relative="1" as="geometry" />
        </mxCell>
        <mxCell id="7e6zY1MCRto-hFeujtTe-11" value="Selezione Società" style="shape=image;html=1;verticalAlign=top;verticalLabelPosition=bottom;labelBackgroundColor=#ffffff;imageAspect=0;aspect=fixed;image=https://cdn1.iconfinder.com/data/icons/hawcons/32/699458-icon-27-one-finger-click-128.png" vertex="1" parent="1">
          <mxGeometry x="666" y="20" width="78" height="78" as="geometry" />
        </mxCell>
        <mxCell id="7e6zY1MCRto-hFeujtTe-36" style="edgeStyle=orthogonalEdgeStyle;rounded=0;orthogonalLoop=1;jettySize=auto;html=1;" edge="1" parent="1" source="7e6zY1MCRto-hFeujtTe-13" target="7e6zY1MCRto-hFeujtTe-38">
          <mxGeometry relative="1" as="geometry">
            <mxPoint x="940" y="209" as="targetPoint" />
          </mxGeometry>
        </mxCell>
        <mxCell id="7e6zY1MCRto-hFeujtTe-13" value="&lt;span style=&quot;background-color: rgb(248, 249, 250);&quot;&gt;Ricerca Bilancio&lt;br&gt;XBLR (xml?)&lt;br&gt;&lt;/span&gt;" style="aspect=fixed;html=1;points=[];align=center;image;fontSize=12;image=img/lib/azure2/app_services/API_Management_Services.svg;" vertex="1" parent="1">
          <mxGeometry x="790" y="179" width="65" height="60" as="geometry" />
        </mxCell>
        <mxCell id="7e6zY1MCRto-hFeujtTe-28" style="edgeStyle=orthogonalEdgeStyle;rounded=0;orthogonalLoop=1;jettySize=auto;html=1;exitX=1;exitY=0.5;exitDx=0;exitDy=0;" edge="1" parent="1" source="7e6zY1MCRto-hFeujtTe-27" target="7e6zY1MCRto-hFeujtTe-13">
          <mxGeometry relative="1" as="geometry" />
        </mxCell>
        <mxCell id="7e6zY1MCRto-hFeujtTe-27" value="Selezione Anno" style="shape=image;html=1;verticalAlign=top;verticalLabelPosition=bottom;labelBackgroundColor=#ffffff;imageAspect=0;aspect=fixed;image=https://cdn1.iconfinder.com/data/icons/hawcons/32/699458-icon-27-one-finger-click-128.png" vertex="1" parent="1">
          <mxGeometry x="311" y="170" width="78" height="78" as="geometry" />
        </mxCell>
        <mxCell id="7e6zY1MCRto-hFeujtTe-73" style="edgeStyle=orthogonalEdgeStyle;rounded=0;orthogonalLoop=1;jettySize=auto;html=1;entryX=0.996;entryY=0.527;entryDx=0;entryDy=0;entryPerimeter=0;" edge="1" parent="1" source="7e6zY1MCRto-hFeujtTe-38" target="7e6zY1MCRto-hFeujtTe-70">
          <mxGeometry relative="1" as="geometry" />
        </mxCell>
        <mxCell id="7e6zY1MCRto-hFeujtTe-38" value="Read xml&lt;br&gt;and parse to&lt;br&gt;Pandas DataFrame" style="sketch=0;outlineConnect=0;fontColor=#232F3E;gradientColor=none;fillColor=#2E27AD;strokeColor=none;dashed=0;verticalLabelPosition=bottom;verticalAlign=top;align=center;html=1;fontSize=12;fontStyle=0;aspect=fixed;pointerEvents=1;shape=mxgraph.aws4.table;" vertex="1" parent="1">
          <mxGeometry x="905.5" y="333.66" width="62" height="62" as="geometry" />
        </mxCell>
        <mxCell id="7e6zY1MCRto-hFeujtTe-57" style="edgeStyle=orthogonalEdgeStyle;rounded=0;orthogonalLoop=1;jettySize=auto;html=1;" edge="1" parent="1" source="7e6zY1MCRto-hFeujtTe-50" target="7e6zY1MCRto-hFeujtTe-54">
          <mxGeometry relative="1" as="geometry">
            <mxPoint x="310" y="540" as="targetPoint" />
          </mxGeometry>
        </mxCell>
        <mxCell id="7e6zY1MCRto-hFeujtTe-50" value="&lt;span style=&quot;color: rgb(0, 0, 0); background-color: rgb(255, 255, 255);&quot;&gt;Requisites&amp;nbsp;&lt;/span&gt;definition&lt;br&gt;for each &quot;Bonus&quot;&amp;nbsp;" style="sketch=0;outlineConnect=0;fontColor=#232F3E;gradientColor=none;fillColor=#B0084D;strokeColor=none;dashed=0;verticalLabelPosition=bottom;verticalAlign=top;align=center;html=1;fontSize=12;fontStyle=0;aspect=fixed;pointerEvents=1;shape=mxgraph.aws4.rule_2;" vertex="1" parent="1">
          <mxGeometry x="200" y="384.25" width="63.11" height="61.5" as="geometry" />
        </mxCell>
        <mxCell id="7e6zY1MCRto-hFeujtTe-67" style="edgeStyle=orthogonalEdgeStyle;rounded=0;orthogonalLoop=1;jettySize=auto;html=1;entryX=0;entryY=0.5;entryDx=0;entryDy=0;" edge="1" parent="1" source="7e6zY1MCRto-hFeujtTe-54" target="7e6zY1MCRto-hFeujtTe-66">
          <mxGeometry relative="1" as="geometry" />
        </mxCell>
        <mxCell id="7e6zY1MCRto-hFeujtTe-54" value="Translation of&amp;nbsp;&lt;span style=&quot;background-color: rgb(255, 255, 255);&quot;&gt;Requisites&lt;/span&gt;&lt;br&gt;in JSON Documents" style="dashed=0;outlineConnect=0;html=1;align=center;labelPosition=center;verticalLabelPosition=bottom;verticalAlign=top;shape=mxgraph.weblogos.json_2" vertex="1" parent="1">
          <mxGeometry x="263.11" y="592.4" width="80.4" height="25.200000000000003" as="geometry" />
        </mxCell>
        <mxCell id="7e6zY1MCRto-hFeujtTe-65" style="edgeStyle=orthogonalEdgeStyle;rounded=0;orthogonalLoop=1;jettySize=auto;html=1;exitX=1;exitY=0.5;exitDx=0;exitDy=0;entryX=0.5;entryY=0;entryDx=0;entryDy=0;entryPerimeter=0;" edge="1" parent="1" source="7e6zY1MCRto-hFeujtTe-60" target="7e6zY1MCRto-hFeujtTe-64">
          <mxGeometry relative="1" as="geometry" />
        </mxCell>
        <mxCell id="7e6zY1MCRto-hFeujtTe-60" value="Combine Financial Statement&lt;br&gt;data and Requisites" style="shape=image;html=1;verticalAlign=top;verticalLabelPosition=bottom;labelBackgroundColor=#ffffff;imageAspect=0;aspect=fixed;image=https://cdn2.iconfinder.com/data/icons/css-vol-2/24/merge-vertical-128.png" vertex="1" parent="1">
          <mxGeometry x="690" y="569" width="72" height="72" as="geometry" />
        </mxCell>
        <mxCell id="7e6zY1MCRto-hFeujtTe-91" style="edgeStyle=orthogonalEdgeStyle;rounded=0;orthogonalLoop=1;jettySize=auto;html=1;exitX=0;exitY=0.5;exitDx=0;exitDy=0;exitPerimeter=0;entryX=0.956;entryY=0.506;entryDx=0;entryDy=0;entryPerimeter=0;" edge="1" parent="1" source="7e6zY1MCRto-hFeujtTe-64" target="7e6zY1MCRto-hFeujtTe-90">
          <mxGeometry relative="1" as="geometry" />
        </mxCell>
        <mxCell id="7e6zY1MCRto-hFeujtTe-64" value="Automatic detection&lt;br&gt;of potential &quot;Bonuses&quot;&lt;br&gt;applicable for the Company" style="sketch=0;points=[[0.015,0.015,0],[0.985,0.015,0],[0.985,0.985,0],[0.015,0.985,0],[0.25,0,0],[0.5,0,0],[0.75,0,0],[1,0.25,0],[1,0.5,0],[1,0.75,0],[0.75,1,0],[0.5,1,0],[0.25,1,0],[0,0.75,0],[0,0.5,0],[0,0.25,0]];verticalLabelPosition=bottom;html=1;verticalAlign=top;aspect=fixed;align=center;pointerEvents=1;shape=mxgraph.cisco19.rect;prIcon=anomaly_detection;fillColor=#FAFAFA;strokeColor=#005073;" vertex="1" parent="1">
          <mxGeometry x="902" y="758" width="69" height="69" as="geometry" />
        </mxCell>
        <mxCell id="7e6zY1MCRto-hFeujtTe-69" style="edgeStyle=orthogonalEdgeStyle;rounded=0;orthogonalLoop=1;jettySize=auto;html=1;entryX=0;entryY=0.5;entryDx=0;entryDy=0;" edge="1" parent="1" source="7e6zY1MCRto-hFeujtTe-66" target="7e6zY1MCRto-hFeujtTe-60">
          <mxGeometry relative="1" as="geometry" />
        </mxCell>
        <mxCell id="7e6zY1MCRto-hFeujtTe-66" value="Database of&lt;br&gt;Requisites" style="aspect=fixed;perimeter=ellipsePerimeter;html=1;align=center;shadow=0;dashed=0;spacingTop=3;image;image=img/lib/active_directory/database.svg;" vertex="1" parent="1">
          <mxGeometry x="440.68" y="569" width="99.32" height="73.5" as="geometry" />
        </mxCell>
        <mxCell id="7e6zY1MCRto-hFeujtTe-74" style="edgeStyle=orthogonalEdgeStyle;rounded=0;orthogonalLoop=1;jettySize=auto;html=1;" edge="1" parent="1" source="7e6zY1MCRto-hFeujtTe-70" target="7e6zY1MCRto-hFeujtTe-60">
          <mxGeometry relative="1" as="geometry" />
        </mxCell>
        <mxCell id="7e6zY1MCRto-hFeujtTe-70" value="Reclassificaitons and&lt;br&gt;Other transformations to&lt;br&gt;prepare the dataset" style="sketch=0;html=1;aspect=fixed;strokeColor=none;shadow=0;align=center;verticalAlign=top;fillColor=#3B8DF1;shape=mxgraph.gcp2.capabilities;labelPosition=center;verticalLabelPosition=bottom;" vertex="1" parent="1">
          <mxGeometry x="679.4999999999999" y="395.65999999999997" width="93" height="70.68" as="geometry" />
        </mxCell>
        <mxCell id="7e6zY1MCRto-hFeujtTe-78" value="User" style="shape=image;html=1;verticalAlign=top;verticalLabelPosition=bottom;labelBackgroundColor=#ffffff;imageAspect=0;aspect=fixed;image=https://cdn1.iconfinder.com/data/icons/user-pictures/100/male3-128.png" vertex="1" parent="1">
          <mxGeometry x="30" y="10" width="50" height="50" as="geometry" />
        </mxCell>
        <mxCell id="7e6zY1MCRto-hFeujtTe-79" value="Consultant" style="shape=image;html=1;verticalAlign=top;verticalLabelPosition=bottom;labelBackgroundColor=#ffffff;imageAspect=0;aspect=fixed;image=https://cdn1.iconfinder.com/data/icons/user-pictures/101/malecostume-128.png" vertex="1" parent="1">
          <mxGeometry x="30" y="189" width="50" height="50" as="geometry" />
        </mxCell>
        <mxCell id="7e6zY1MCRto-hFeujtTe-81" value="Programmer" style="shape=image;html=1;verticalAlign=top;verticalLabelPosition=bottom;labelBackgroundColor=#ffffff;imageAspect=0;aspect=fixed;image=https://cdn1.iconfinder.com/data/icons/user-pictures/100/supportfemale-128.png" vertex="1" parent="1">
          <mxGeometry x="30" y="98" width="50" height="50" as="geometry" />
        </mxCell>
        <mxCell id="7e6zY1MCRto-hFeujtTe-82" value="" style="shape=image;html=1;verticalAlign=top;verticalLabelPosition=bottom;labelBackgroundColor=#ffffff;imageAspect=0;aspect=fixed;image=https://cdn1.iconfinder.com/data/icons/user-pictures/100/supportfemale-128.png" vertex="1" parent="1">
          <mxGeometry x="220" y="585" width="35" height="35" as="geometry" />
        </mxCell>
        <mxCell id="7e6zY1MCRto-hFeujtTe-83" value="" style="shape=image;html=1;verticalAlign=top;verticalLabelPosition=bottom;labelBackgroundColor=#ffffff;imageAspect=0;aspect=fixed;image=https://cdn1.iconfinder.com/data/icons/user-pictures/101/malecostume-128.png" vertex="1" parent="1">
          <mxGeometry x="150" y="395.65999999999997" width="35" height="35" as="geometry" />
        </mxCell>
        <mxCell id="7e6zY1MCRto-hFeujtTe-84" value="" style="shape=image;html=1;verticalAlign=top;verticalLabelPosition=bottom;labelBackgroundColor=#ffffff;imageAspect=0;aspect=fixed;image=https://cdn1.iconfinder.com/data/icons/user-pictures/100/male3-128.png" vertex="1" parent="1">
          <mxGeometry x="276" y="41.5" width="35" height="35" as="geometry" />
        </mxCell>
        <mxCell id="7e6zY1MCRto-hFeujtTe-85" value="" style="shape=image;html=1;verticalAlign=top;verticalLabelPosition=bottom;labelBackgroundColor=#ffffff;imageAspect=0;aspect=fixed;image=https://cdn1.iconfinder.com/data/icons/user-pictures/100/male3-128.png" vertex="1" parent="1">
          <mxGeometry x="276" y="191.5" width="35" height="35" as="geometry" />
        </mxCell>
        <mxCell id="7e6zY1MCRto-hFeujtTe-86" value="" style="shape=image;html=1;verticalAlign=top;verticalLabelPosition=bottom;labelBackgroundColor=#ffffff;imageAspect=0;aspect=fixed;image=https://cdn1.iconfinder.com/data/icons/user-pictures/100/male3-128.png" vertex="1" parent="1">
          <mxGeometry x="241" y="890" width="35" height="35" as="geometry" />
        </mxCell>
        <mxCell id="7e6zY1MCRto-hFeujtTe-87" value="Email to User&lt;br&gt;with preliminary&lt;br&gt;results and request&lt;br&gt;for contact" style="html=1;verticalLabelPosition=bottom;align=center;labelBackgroundColor=#ffffff;verticalAlign=top;strokeWidth=2;strokeColor=#0080F0;shadow=0;dashed=0;shape=mxgraph.ios7.icons.mail;" vertex="1" parent="1">
          <mxGeometry x="283.51" y="890" width="60" height="40" as="geometry" />
        </mxCell>
        <mxCell id="7e6zY1MCRto-hFeujtTe-95" value="OK" style="edgeStyle=orthogonalEdgeStyle;rounded=0;orthogonalLoop=1;jettySize=auto;html=1;entryX=0.458;entryY=-0.039;entryDx=0;entryDy=0;entryPerimeter=0;" edge="1" parent="1" source="7e6zY1MCRto-hFeujtTe-88" target="7e6zY1MCRto-hFeujtTe-87">
          <mxGeometry relative="1" as="geometry">
            <mxPoint x="170" y="770" as="targetPoint" />
          </mxGeometry>
        </mxCell>
        <mxCell id="7e6zY1MCRto-hFeujtTe-88" value="Review and Approval&lt;br&gt;of results" style="sketch=0;html=1;aspect=fixed;strokeColor=none;shadow=0;align=center;verticalAlign=top;fillColor=#3B8DF1;shape=mxgraph.gcp2.check_2;labelPosition=center;verticalLabelPosition=bottom;" vertex="1" parent="1">
          <mxGeometry x="540" y="761" width="63" height="63" as="geometry" />
        </mxCell>
        <mxCell id="7e6zY1MCRto-hFeujtTe-92" style="edgeStyle=orthogonalEdgeStyle;rounded=0;orthogonalLoop=1;jettySize=auto;html=1;" edge="1" parent="1" source="7e6zY1MCRto-hFeujtTe-90" target="7e6zY1MCRto-hFeujtTe-88">
          <mxGeometry relative="1" as="geometry" />
        </mxCell>
        <mxCell id="7e6zY1MCRto-hFeujtTe-90" value="Output Report" style="sketch=0;html=1;aspect=fixed;strokeColor=none;shadow=0;align=center;verticalAlign=top;fillColor=#3B8DF1;shape=mxgraph.gcp2.view_list;labelPosition=center;verticalLabelPosition=bottom;" vertex="1" parent="1">
          <mxGeometry x="720" y="753.75" width="62.78" height="77.5" as="geometry" />
        </mxCell>
        <mxCell id="7e6zY1MCRto-hFeujtTe-93" value="" style="shape=image;html=1;verticalAlign=top;verticalLabelPosition=bottom;labelBackgroundColor=#ffffff;imageAspect=0;aspect=fixed;image=https://cdn1.iconfinder.com/data/icons/user-pictures/101/malecostume-128.png" vertex="1" parent="1">
          <mxGeometry x="505" y="740" width="35" height="35" as="geometry" />
        </mxCell>
      </root>
    </mxGraphModel>
  </diagram>
</mxfile>
